<svg id="chevron-circle-right-Filled" xmlns="http://www.w3.org/2000/svg" width="42" height="42" viewBox="0 0 42 42">
  <rect id="Path" width="42" height="42" fill="rgba(255,255,255,0)"/>
  <path id="chevron-circle-right-Filled_1_" d="M942.125,2771.5a16.625,16.625,0,1,0,16.625,16.625A16.64,16.64,0,0,0,942.125,2771.5Zm4.742,17.867-5.25,5.25a1.774,1.774,0,0,1-2.485,0,1.764,1.764,0,0,1,0-2.485l4.025-4.008-4.025-4.007a1.757,1.757,0,0,1,2.485-2.485l5.25,5.25A1.764,1.764,0,0,1,946.867,2789.367Z" transform="translate(-921.125 -2767.125)" fill="#41416e"/>
</svg>
