<svg xmlns="http://www.w3.org/2000/svg" width="25.757" height="25.757" viewBox="0 0 25.757 25.757">
  <g id="Component_372_1" data-name="Component 372 – 1" transform="translate(0.144 0.144)">
    <path id="Path_3140" data-name="Path 3140" d="M13.923,1.25h.123a21.707,21.707,0,0,1,2.657.095,3.227,3.227,0,0,1,1.955.859,3.227,3.227,0,0,1,.86,1.955,15.318,15.318,0,0,1,.093,1.86c.768.025,1.453.07,2.062.151a5.581,5.581,0,0,1,3.4,1.467,5.581,5.581,0,0,1,1.467,3.4,43.293,43.293,0,0,1,.181,5.251v.134a43.293,43.293,0,0,1-.181,5.251,5.582,5.582,0,0,1-1.467,3.4,5.582,5.582,0,0,1-3.4,1.467,43.293,43.293,0,0,1-5.251.181H11.549A43.293,43.293,0,0,1,6.3,26.538a5.581,5.581,0,0,1-3.4-1.467,5.581,5.581,0,0,1-1.467-3.4,43.269,43.269,0,0,1-.181-5.251v-.134a43.27,43.27,0,0,1,.181-5.251A5.58,5.58,0,0,1,2.9,7.637,5.58,5.58,0,0,1,6.3,6.17c.609-.082,1.293-.127,2.062-.151a15.318,15.318,0,0,1,.093-1.86A3.227,3.227,0,0,1,9.312,2.2a3.227,3.227,0,0,1,1.955-.859A21.707,21.707,0,0,1,13.923,1.25ZM10.137,5.991q.672,0,1.412,0h4.872q.74,0,1.412,0A13.336,13.336,0,0,0,17.756,4.4a1.5,1.5,0,0,0-.355-.935,1.5,1.5,0,0,0-.935-.355,21.013,21.013,0,0,0-2.481-.079,21.013,21.013,0,0,0-2.481.079,1.5,1.5,0,0,0-.935.355,1.5,1.5,0,0,0-.355.935A13.337,13.337,0,0,0,10.137,5.991Zm-3.6,1.94a3.847,3.847,0,0,0-2.38.962,3.847,3.847,0,0,0-.962,2.38,42.637,42.637,0,0,0-.166,5.081,42.639,42.639,0,0,0,.166,5.081,3.847,3.847,0,0,0,.962,2.38,3.846,3.846,0,0,0,2.38.962,42.627,42.627,0,0,0,5.081.166h4.738a42.629,42.629,0,0,0,5.081-.166,3.846,3.846,0,0,0,2.38-.962,3.846,3.846,0,0,0,.962-2.38,42.629,42.629,0,0,0,.166-5.081,42.628,42.628,0,0,0-.166-5.081,3.846,3.846,0,0,0-.962-2.38,3.847,3.847,0,0,0-2.38-.962,42.642,42.642,0,0,0-5.081-.166H11.615A42.64,42.64,0,0,0,6.534,7.931Zm7.45,2.8a.888.888,0,0,1,.888.888v.012a2.924,2.924,0,0,1,2.369,2.752.888.888,0,1,1-1.777,0c0-.455-.5-1.086-1.481-1.086s-1.481.631-1.481,1.086.5,1.086,1.481,1.086a3.081,3.081,0,0,1,3.258,2.863,2.924,2.924,0,0,1-2.369,2.752v.012a.888.888,0,1,1-1.777,0V21.08a2.924,2.924,0,0,1-2.369-2.752.888.888,0,1,1,1.777,0c0,.455.5,1.086,1.481,1.086s1.481-.631,1.481-1.086-.5-1.086-1.481-1.086a3.081,3.081,0,0,1-3.258-2.863A2.924,2.924,0,0,1,13.1,11.627v-.012A.888.888,0,0,1,13.985,10.727Z" transform="translate(-1.25 -1.25)" fill="#8300c4" stroke="#8300c4" stroke-width="0.288" fill-rule="evenodd"/>
  </g>
</svg>
