<svg id="map-marker-Filled" xmlns="http://www.w3.org/2000/svg" width="31" height="31" viewBox="0 0 31 31">
  <rect id="Path" width="31" height="31" fill="rgba(255,255,255,0)"/>
  <path id="map-marker-Filled_1_" d="M219.771,2781.188a2.583,2.583,0,1,1-2.583-2.583A2.591,2.591,0,0,1,219.771,2781.188Zm7.1,0c0,7.854-6.032,12.774-8.615,14.518a1.817,1.817,0,0,1-1.072.336,1.885,1.885,0,0,1-1.085-.336c-2.583-1.744-8.6-6.653-8.6-14.518a9.687,9.687,0,0,1,19.375,0Zm-4.521,0a5.167,5.167,0,1,0-5.167,5.167A5.166,5.166,0,0,0,222.354,2781.188Z" transform="translate(-201.688 -2768.271)" fill="#41416e"/>
</svg>
