<svg id="phone-Bold" xmlns="http://www.w3.org/2000/svg" width="28" height="28" viewBox="0 0 28 28">
  <rect id="Path" width="28" height="28" fill="rgba(255,255,255,0)"/>
  <path id="phone-Bold_1_" d="M756.255,2124.984a4.459,4.459,0,0,0-.1-.445,2.305,2.305,0,0,0-1.849-1.624l-5.053-.841a2.349,2.349,0,0,0-2.222.85c-.068.085-.133.174-.264.319a10.6,10.6,0,0,1-5.636-5.74c.12-.081.236-.167.345-.257a2.348,2.348,0,0,0,.841-2.19l-.783-4.964a2.316,2.316,0,0,0-1.559-1.853,4.474,4.474,0,0,0-.632-.16,5.3,5.3,0,0,0-4.391,1.217,5.573,5.573,0,0,0-1.948,4.4,18.133,18.133,0,0,0,17.635,17.636h.152a5.564,5.564,0,0,0,4.221-1.938A5.329,5.329,0,0,0,756.255,2124.984Zm-3.009,2.884A3.233,3.233,0,0,1,750.7,2129a15.8,15.8,0,0,1-15.366-15.368,3.254,3.254,0,0,1,1.137-2.562,2.948,2.948,0,0,1,1.933-.737,3.009,3.009,0,0,1,.522.047,2.022,2.022,0,0,1,.3.078l.777,4.981c-.058.047-.119.091-.184.135a2.364,2.364,0,0,0-.875,2.922,13.244,13.244,0,0,0,6.887,6.889,2.369,2.369,0,0,0,2.925-.874l.109-.134,5.04.794a2.137,2.137,0,0,1,.048.215A3,3,0,0,1,753.246,2127.868Z" transform="translate(-730.666 -2105.667)" fill="#41416e"/>
</svg>
